<svg width="171" height="27" viewBox="0 0 171 27" fill="none" xmlns="http://www.w3.org/2000/svg">
<path d="M7.10352 21.2539H17.8438V26H0.933594V0.40625H7.10352V21.2539ZM40.9941 13.7305C40.9941 16.2266 40.5312 18.4355 39.6055 20.3574C38.6797 22.2793 37.3613 23.7617 35.6504 24.8047C33.9512 25.8359 32.0117 26.3516 29.832 26.3516C27.6523 26.3516 25.7188 25.8535 24.0312 24.8574C22.3438 23.8496 21.0254 22.4141 20.0762 20.5508C19.1387 18.6875 18.6465 16.5488 18.5996 14.1348V12.6934C18.5996 10.1855 19.0566 7.97656 19.9707 6.06641C20.8965 4.14453 22.2148 2.66211 23.9258 1.61914C25.6484 0.576172 27.6055 0.0546875 29.7969 0.0546875C31.9648 0.0546875 33.8984 0.570312 35.5977 1.60156C37.2969 2.63281 38.6152 4.10352 39.5527 6.01367C40.502 7.91211 40.9824 10.0918 40.9941 12.5527V13.7305ZM34.7188 12.6582C34.7188 10.1152 34.291 8.1875 33.4355 6.875C32.5918 5.55078 31.3789 4.88867 29.7969 4.88867C26.7031 4.88867 25.0684 7.20898 24.8926 11.8496L24.875 13.7305C24.875 16.2383 25.291 18.166 26.123 19.5137C26.9551 20.8613 28.1914 21.5352 29.832 21.5352C31.3906 21.5352 32.5918 20.873 33.4355 19.5488C34.2793 18.2246 34.707 16.3203 34.7188 13.8359V12.6582ZM65.1289 22.8359C64.1797 23.8906 62.791 24.7402 60.9629 25.3848C59.1348 26.0293 57.1309 26.3516 54.9512 26.3516C51.5996 26.3516 48.9219 25.3262 46.918 23.2754C44.9141 21.2246 43.8418 18.3711 43.7012 14.7148L43.6836 12.5C43.6836 9.98047 44.1289 7.7832 45.0195 5.9082C45.9102 4.02148 47.1816 2.57422 48.834 1.56641C50.498 0.546875 52.4199 0.0371094 54.5996 0.0371094C57.7871 0.0371094 60.2598 0.769531 62.0176 2.23438C63.7871 3.6875 64.8184 5.86133 65.1113 8.75586H59.1699C58.959 7.32617 58.502 6.30664 57.7988 5.69727C57.0957 5.08789 56.0996 4.7832 54.8105 4.7832C53.2637 4.7832 52.0684 5.43945 51.2246 6.75195C50.3809 8.06445 49.9531 9.93945 49.9414 12.377V13.9238C49.9414 16.4785 50.375 18.4004 51.2422 19.6895C52.1211 20.9668 53.498 21.6055 55.373 21.6055C56.9785 21.6055 58.1738 21.248 58.959 20.5332V16.5605H54.6699V12.3242H65.1289V22.8359ZM90.3887 13.7305C90.3887 16.2266 89.9258 18.4355 89 20.3574C88.0742 22.2793 86.7559 23.7617 85.0449 24.8047C83.3457 25.8359 81.4062 26.3516 79.2266 26.3516C77.0469 26.3516 75.1133 25.8535 73.4258 24.8574C71.7383 23.8496 70.4199 22.4141 69.4707 20.5508C68.5332 18.6875 68.041 16.5488 67.9941 14.1348V12.6934C67.9941 10.1855 68.4512 7.97656 69.3652 6.06641C70.291 4.14453 71.6094 2.66211 73.3203 1.61914C75.043 0.576172 77 0.0546875 79.1914 0.0546875C81.3594 0.0546875 83.293 0.570312 84.9922 1.60156C86.6914 2.63281 88.0098 4.10352 88.9473 6.01367C89.8965 7.91211 90.377 10.0918 90.3887 12.5527V13.7305ZM84.1133 12.6582C84.1133 10.1152 83.6855 8.1875 82.8301 6.875C81.9863 5.55078 80.7734 4.88867 79.1914 4.88867C76.0977 4.88867 74.4629 7.20898 74.2871 11.8496L74.2695 13.7305C74.2695 16.2383 74.6855 18.166 75.5176 19.5137C76.3496 20.8613 77.5859 21.5352 79.2266 21.5352C80.7852 21.5352 81.9863 20.873 82.8301 19.5488C83.6738 18.2246 84.1016 16.3203 84.1133 13.8359V12.6582ZM112.15 5.16992H104.469V26H98.2988V5.16992H90.7578V0.40625H112.15V5.16992ZM121.344 26H115.191V0.40625H121.344V26ZM131.803 17.3164V26H125.633V0.40625H135.846C137.803 0.40625 139.531 0.769531 141.031 1.49609C142.543 2.21094 143.709 3.23633 144.529 4.57227C145.361 5.89648 145.777 7.40234 145.777 9.08984C145.777 11.5859 144.881 13.584 143.088 15.084C141.307 16.5723 138.857 17.3164 135.74 17.3164H131.803ZM131.803 12.5527H135.846C137.041 12.5527 137.949 12.2539 138.57 11.6562C139.203 11.0586 139.52 10.2148 139.52 9.125C139.52 7.92969 139.197 6.97461 138.553 6.25977C137.908 5.54492 137.029 5.18164 135.916 5.16992H131.803V12.5527ZM170.756 13.7305C170.756 16.2266 170.293 18.4355 169.367 20.3574C168.441 22.2793 167.123 23.7617 165.412 24.8047C163.713 25.8359 161.773 26.3516 159.594 26.3516C157.414 26.3516 155.48 25.8535 153.793 24.8574C152.105 23.8496 150.787 22.4141 149.838 20.5508C148.9 18.6875 148.408 16.5488 148.361 14.1348V12.6934C148.361 10.1855 148.818 7.97656 149.732 6.06641C150.658 4.14453 151.977 2.66211 153.688 1.61914C155.41 0.576172 157.367 0.0546875 159.559 0.0546875C161.727 0.0546875 163.66 0.570312 165.359 1.60156C167.059 2.63281 168.377 4.10352 169.314 6.01367C170.264 7.91211 170.744 10.0918 170.756 12.5527V13.7305ZM164.48 12.6582C164.48 10.1152 164.053 8.1875 163.197 6.875C162.354 5.55078 161.141 4.88867 159.559 4.88867C156.465 4.88867 154.83 7.20898 154.654 11.8496L154.637 13.7305C154.637 16.2383 155.053 18.166 155.885 19.5137C156.717 20.8613 157.953 21.5352 159.594 21.5352C161.152 21.5352 162.354 20.873 163.197 19.5488C164.041 18.2246 164.469 16.3203 164.48 13.8359V12.6582Z" fill="white"/>
</svg>
