<svg width="38" height="38" viewBox="0 0 38 38" fill="none" xmlns="http://www.w3.org/2000/svg">
<g clip-path="url(#clip0)">
<path d="M35.829 32.045L28.996 25.212C28.483 24.699 27.829 24.424 27.16 24.359C29.22 21.792 30.458 18.54 30.458 15C30.458 6.729 23.729 0 15.458 0C7.18701 0 0.458008 6.729 0.458008 15C0.458008 23.271 7.18701 30 15.458 30C18.579 30 21.479 29.04 23.882 27.402C23.9 28.146 24.187 28.884 24.754 29.454L31.587 36.287C32.172 36.873 32.941 37.166 33.708 37.166C34.475 37.166 35.244 36.873 35.829 36.287C37.001 35.116 37.001 33.217 35.829 32.045ZM15.458 25C9.94401 25 5.45801 20.516 5.45801 15C5.45801 9.486 9.94401 5 15.458 5C20.972 5 25.458 9.486 25.458 15C25.458 20.516 20.972 25 15.458 25Z" fill="#F64225"/>
</g>
<defs>
<clipPath id="clip0">
<rect width="37.166" height="37.166" fill="white"/>
</clipPath>
</defs>
</svg>
