<svg width="399" height="399" viewBox="0 0 399 399" fill="none" xmlns="http://www.w3.org/2000/svg">
<g clip-path="url(#clip0)">
<path d="M203.678 18.239C302.078 18.239 382.078 98.239 382.078 196.639C382.078 295.039 302.078 375.039 203.678 375.039C174.078 375.039 145.278 367.839 119.678 354.239C118.078 353.439 115.678 353.439 114.078 353.439L18.8779 377.439L45.2779 284.639C46.0779 283.039 46.0779 280.639 44.4779 279.039C31.6779 253.439 24.4779 226.239 24.4779 197.439C24.4779 98.239 104.478 18.239 203.678 18.239ZM268.478 323.839C270.078 323.839 271.678 323.839 272.478 322.239C292.478 308.639 310.878 291.039 326.878 267.839C329.278 264.639 328.478 260.639 326.078 257.439L274.078 205.439C270.878 202.239 266.078 202.239 262.878 205.439L243.678 224.639L174.078 155.039L193.278 135.839C194.878 134.239 195.678 132.639 195.678 130.239C195.678 127.839 194.878 126.239 193.278 124.639L141.278 71.839C138.078 69.439 134.078 68.639 130.878 71.039C107.678 87.039 90.0779 104.639 76.4779 125.439C74.8779 127.839 74.8779 131.039 76.4779 134.239C125.278 214.239 188.478 277.439 265.278 323.039C266.078 323.839 267.678 323.839 268.478 323.839Z" fill="#7AC943"/>
<path d="M203.678 18.239C302.078 18.239 382.078 98.239 382.078 196.639C382.078 295.039 302.078 375.039 203.678 375.039C174.078 375.039 145.278 367.839 119.678 354.239C118.078 353.439 115.678 353.439 114.078 353.439L18.8779 377.439L45.2779 284.639C46.0779 283.039 46.0779 280.639 44.4779 279.039C31.6779 253.439 24.4779 226.239 24.4779 197.439C24.4779 98.239 104.478 18.239 203.678 18.239Z" fill="#67BC34"/>
<path d="M203.678 359.039C177.278 359.039 150.878 352.639 126.878 339.839C123.678 338.239 119.678 336.639 115.678 336.639C114.078 336.639 111.678 336.639 110.078 337.439L42.0779 354.239L61.2779 287.839C62.8779 282.239 62.0779 275.039 59.6779 270.239C47.6779 247.039 42.0779 222.239 42.0779 196.639C42.0779 107.039 114.878 34.239 204.478 34.239C294.078 34.239 366.878 107.039 366.878 196.639C366.078 286.239 293.278 359.039 203.678 359.039Z" fill="#7AC943"/>
<path d="M238.078 242.239C241.278 245.439 246.078 245.439 249.278 242.239L268.478 223.039L310.078 264.639C297.278 282.239 282.878 295.839 267.678 307.039C197.278 263.839 138.078 204.639 91.678 131.039C102.878 115.039 116.478 101.439 134.078 88.639L175.678 130.239L156.478 149.439C154.878 151.039 154.078 152.639 154.078 155.039C154.078 157.439 154.878 159.039 156.478 160.639L238.078 242.239Z" fill="#FFF8EF"/>
<path d="M76.4781 134.239C74.8781 131.839 74.8781 128.639 76.4781 125.439C90.0781 104.639 107.678 87.039 130.878 71.039C134.078 68.639 138.078 69.439 141.278 71.839L193.278 124.639C194.878 126.239 195.678 127.839 195.678 130.239C195.678 132.639 194.878 134.239 193.278 135.839L174.078 155.039L243.678 224.639L262.878 205.439C266.078 202.239 270.878 202.239 274.078 205.439L326.078 257.439C328.478 259.839 329.278 264.639 326.878 267.839C310.878 291.039 292.478 309.439 272.478 322.239C270.878 323.039 269.278 323.839 268.478 323.839C266.878 323.839 265.278 323.839 264.478 323.039C188.478 278.239 125.278 214.239 76.4781 134.239ZM134.878 88.639C118.078 101.439 103.678 115.039 92.4781 131.039C138.878 205.439 198.078 264.639 268.478 307.039C283.678 296.639 298.078 282.239 310.878 264.639L269.278 223.039L250.078 242.239C246.878 245.439 242.078 245.439 238.878 242.239L157.278 160.639C155.678 159.039 154.878 157.439 154.878 155.039C154.878 152.639 155.678 151.039 157.278 149.439L176.478 130.239L134.878 88.639Z" fill="black"/>
<path d="M203.678 391.039C172.478 391.039 142.078 383.839 114.878 369.439L9.27797 395.839C8.47797 395.839 7.67797 395.839 7.67797 395.839C5.27797 395.839 3.67797 395.039 2.07797 393.439C-0.322027 391.039 -0.322027 388.639 0.477973 385.439L30.078 282.239C16.478 255.039 10.078 226.239 10.078 196.639C8.47797 89.439 95.678 2.23901 203.678 2.23901C311.678 2.23901 398.078 89.439 398.078 196.639C398.078 303.839 310.878 391.039 203.678 391.039ZM113.278 353.439C114.878 352.639 117.278 353.439 118.878 354.239C144.478 367.839 174.078 375.039 202.878 375.039C301.278 375.039 381.278 295.039 381.278 196.639C381.278 98.239 302.078 18.239 203.678 18.239C105.278 18.239 25.278 98.239 25.278 196.639C25.278 225.439 31.678 252.639 45.278 278.239C46.078 279.839 46.078 282.239 46.078 283.839L19.678 376.639L113.278 353.439Z" fill="black"/>
</g>
<defs>
<clipPath id="clip0">
<rect width="398.078" height="398.078" fill="white"/>
</clipPath>
</defs>
</svg>
